<svg width="100" height="100" viewBox="0 0 100 100" fill="none" xmlns="http://www.w3.org/2000/svg">
<path d="M58 29C63.5228 29 68 33.4772 68 39V90C68 95.5228 63.5228 100 58 100H10C4.47715 100 1.8523e-07 95.5228 0 90V39C0 33.4772 4.47715 29 10 29H58ZM28 54C25.2386 54 23 56.2386 23 59V71C23 73.7614 25.2386 76 28 76H40C42.7614 76 45 73.7614 45 71V59C45 56.2386 42.7614 54 40 54H28Z" fill="#3E4DED"/>
<path d="M75 0H90C95.5228 0 100 4.47715 100 10V90C100 95.5228 95.5228 100 90 100H85C79.4772 100 75 95.5228 75 90V50V31.5C75 25.9772 70.5228 21.5 65 21.5H10C4.47715 21.5 0 17.0228 0 11.5V10C0 4.47715 4.47715 0 10 0H75Z" fill="#3E4DED"/>
</svg>
