<svg width="100" height="100" viewBox="0 0 100 100" fill="none" xmlns="http://www.w3.org/2000/svg">
<path d="M61 0C64.344 0 67.075 2.62623 67.2422 5.92871L67.2578 6.57129C67.425 9.87377 70.156 12.5 73.5 12.5H75.625C80.2504 12.5 84 16.2496 84 20.875V90C84 95.5228 79.5228 100 74 100H27C21.4772 100 17 95.5228 17 90V10C17 4.47715 21.4772 0 27 0H61ZM50.5 29.5996C49.7668 29.5996 49.1668 29.8498 48.7002 30.3496C48.2336 30.8162 48.0001 31.3998 48 32.0996V35.6484C46.0811 35.8862 44.3813 36.4028 42.9004 37.2002C41.1671 38.1335 39.8163 39.3835 38.8496 40.9502C37.8831 42.4835 37.4004 44.2337 37.4004 46.2002C37.4004 48.7334 38.1504 50.783 39.6504 52.3496C41.1504 53.9163 43.4169 55.0335 46.4502 55.7002L51.75 56.8496C53.0499 57.1163 54.083 57.4671 54.8496 57.9004C55.6161 58.3003 56.1666 58.7831 56.5 59.3496C56.8333 59.8829 57 60.5167 57 61.25C57 62.15 56.75 62.9504 56.25 63.6504C55.7833 64.3502 55.0332 64.8999 54 65.2998C52.9667 65.6998 51.6168 65.9004 49.9502 65.9004C47.817 65.9004 45.9835 65.6668 44.4502 65.2002C42.9502 64.7002 41.7331 64.1837 40.7998 63.6504C40.0999 63.2504 39.4835 63.1167 38.9502 63.25C38.4169 63.35 37.9663 63.6165 37.5996 64.0498C37.2663 64.4498 37.0667 64.9334 37 65.5C36.9333 66.0667 37.0167 66.6335 37.25 67.2002C37.4833 67.7334 37.9001 68.1832 38.5 68.5498C39.7333 69.2498 41.2333 69.8671 43 70.4004C44.4943 70.8431 46.1612 71.121 48 71.2422V74.6504C48.0001 75.3502 48.2336 75.9338 48.7002 76.4004C49.1668 76.9002 49.7668 77.1504 50.5 77.1504C51.2332 77.1504 51.8332 76.9002 52.2998 76.4004C52.7664 75.9338 52.9999 75.3502 53 74.6504V71.0771C54.8406 70.7992 56.4745 70.2913 57.9004 69.5498C59.6002 68.6498 60.9338 67.4666 61.9004 66C62.867 64.5 63.3496 62.7829 63.3496 60.8496C63.3495 58.3831 62.5995 56.4003 61.0996 54.9004C59.5996 53.3671 57.2498 52.2498 54.0498 51.5498L48.5996 50.3496C46.8332 49.9496 45.5829 49.4166 44.8496 48.75C44.1164 48.05 43.75 47.1332 43.75 46C43.75 44.4667 44.3498 43.2331 45.5498 42.2998C46.7831 41.3332 48.4665 40.8497 50.5996 40.8496C52.2663 40.8496 53.7004 41.0337 54.9004 41.4004C56.1002 41.7337 57.1838 42.1834 58.1504 42.75C58.8503 43.1499 59.4667 43.3331 60 43.2998C60.5667 43.2331 61.0337 43.0335 61.4004 42.7002C61.767 42.3669 62.0171 41.9666 62.1504 41.5C62.2837 41 62.2663 40.5 62.0996 40C61.9329 39.4667 61.5996 38.9996 61.0996 38.5996C59.8664 37.6332 58.3834 36.8829 56.6504 36.3496C55.3565 35.9437 54.1394 35.6837 53 35.5674V32.0996C52.9999 31.3998 52.7499 30.8162 52.25 30.3496C51.7834 29.8497 51.1999 29.5996 50.5 29.5996Z" fill="#3E4DED"/>
</svg>
