<svg width="416" height="101" viewBox="0 0 416 101" fill="none" xmlns="http://www.w3.org/2000/svg">
<path d="M10.0517 75.1556C8.63317 75.1556 7.53262 74.7643 6.75002 73.982C6.01632 73.1996 5.64948 72.0748 5.64948 70.6077V26.963C5.64948 25.4471 6.01632 24.2979 6.75002 23.5155C7.53262 22.6841 8.53535 22.2685 9.75817 22.2685C10.8832 22.2685 11.7147 22.4885 12.2527 22.9287C12.8397 23.3199 13.5245 24.0044 14.3071 24.9825L42.4077 61.4387H40.5V26.743C40.5 25.3248 40.8669 24.2245 41.6006 23.4421C42.3831 22.6597 43.4837 22.2685 44.9022 22.2685C46.3207 22.2685 47.3968 22.6597 48.1305 23.4421C48.8642 24.2245 49.231 25.3248 49.231 26.743V70.7544C49.231 72.1236 48.8887 73.1996 48.2039 73.982C47.519 74.7643 46.5897 75.1556 45.4158 75.1556C44.2908 75.1556 43.386 74.9355 42.7011 74.4954C42.0653 74.0553 41.356 73.3463 40.5734 72.3682L12.5462 35.912H14.3805V70.6077C14.3805 72.0748 14.0136 73.1996 13.2799 73.982C12.5462 74.7643 11.4701 75.1556 10.0517 75.1556ZM63.2481 75.1556C62.0742 75.1556 61.1203 74.8867 60.3867 74.3487C59.7018 73.8107 59.2861 73.1017 59.1394 72.2215C58.9926 71.2924 59.1639 70.2655 59.653 69.1407L79.0225 26.2295C79.6584 24.8113 80.4166 23.8089 81.297 23.2221C82.2263 22.5864 83.278 22.2685 84.4519 22.2685C85.5769 22.2685 86.5796 22.5864 87.46 23.2221C88.3893 23.8089 89.172 24.8113 89.8079 26.2295L109.251 69.1407C109.789 70.2655 109.985 71.2924 109.838 72.2215C109.691 73.1506 109.275 73.8841 108.59 74.4221C107.906 74.911 107.001 75.1556 105.876 75.1556C104.506 75.1556 103.43 74.8377 102.648 74.202C101.914 73.5173 101.254 72.4904 100.667 71.1212L95.8975 60.045L99.8595 62.6123H68.8975L72.8595 60.045L68.1638 71.1212C67.528 72.5394 66.8677 73.5663 66.1828 74.202C65.498 74.8377 64.5199 75.1556 63.2481 75.1556ZM84.3051 33.0513L74.0334 57.4777L72.1258 55.1304H96.6312L94.797 57.4777L84.4519 33.0513H84.3051ZM124.375 75.1556C122.859 75.1556 121.661 74.74 120.78 73.9086C119.949 73.0284 119.533 71.7814 119.533 70.1676V27.8433C119.533 26.2295 119.949 25.007 120.78 24.1756C121.661 23.2954 122.908 22.8553 124.522 22.8553H150.128C151.399 22.8553 152.354 23.1732 152.99 23.8089C153.625 24.4446 153.943 25.3493 153.943 26.5229C153.943 27.7454 153.625 28.699 152.99 29.3837C152.354 30.0193 151.399 30.3373 150.128 30.3373H128.924V44.9344H148.588C149.81 44.9344 150.739 45.2523 151.375 45.888C152.06 46.5236 152.402 47.4284 152.402 48.602C152.402 49.8245 152.06 50.7781 151.375 51.4628C150.739 52.0984 149.81 52.4163 148.588 52.4163H128.924V70.1676C128.924 73.493 127.408 75.1556 124.375 75.1556ZM167.701 74.5688C166.185 74.5688 165.011 74.1532 164.18 73.3218C163.349 72.4416 162.932 71.2434 162.932 69.7275V27.4032C162.932 25.8383 163.323 24.6646 164.107 23.8822C164.938 23.0509 166.112 22.6352 167.628 22.6352C169.144 22.6352 170.293 23.0509 171.077 23.8822C171.908 24.6646 172.324 25.8383 172.324 27.4032V66.5734H193.601C194.922 66.5734 195.924 66.9156 196.609 67.6003C197.343 68.285 197.71 69.2629 197.71 70.5344C197.71 71.8059 197.343 72.8083 196.609 73.5418C195.924 74.2265 194.922 74.5688 193.601 74.5688H167.701Z" fill="#39D9A9"/>
<path d="M290.888 75.1556C289.566 75.1556 288.49 74.8377 287.659 74.202C286.877 73.5663 286.24 72.5638 285.752 71.1946L270.417 27.8433C269.88 26.2784 269.977 24.958 270.711 23.8822C271.493 22.8064 272.79 22.2685 274.6 22.2685C275.92 22.2685 276.947 22.5864 277.681 23.2221C278.415 23.8089 279.002 24.7625 279.442 26.0828L292.649 65.253H289.714L303.507 26.1562C303.997 24.8358 304.607 23.8577 305.341 23.2221C306.075 22.5864 307.029 22.2685 308.203 22.2685C309.376 22.2685 310.306 22.5864 310.991 23.2221C311.676 23.8577 312.262 24.8603 312.752 26.2295L326.105 65.253H323.537L336.964 26.0828C337.404 24.8113 337.99 23.8577 338.724 23.2221C339.458 22.5864 340.461 22.2685 341.733 22.2685C343.298 22.2685 344.447 22.8064 345.181 23.8822C345.915 24.958 346.012 26.2784 345.475 27.8433L329.994 71.2679C329.504 72.5883 328.869 73.5663 328.085 74.202C327.303 74.8377 326.251 75.1556 324.931 75.1556C323.61 75.1556 322.558 74.8377 321.776 74.202C320.994 73.5663 320.357 72.5638 319.869 71.1946L307.102 34.8117H308.79L295.877 71.2679C295.387 72.5883 294.752 73.5663 293.969 74.202C293.235 74.8377 292.209 75.1556 290.888 75.1556ZM373.471 75.3023C371.319 75.3023 369.167 75.1311 367.014 74.7888C364.863 74.4954 362.833 74.0308 360.925 73.3951C359.018 72.7105 357.306 71.8792 355.79 70.9011C354.908 70.3143 354.298 69.6053 353.955 68.7739C353.613 67.9426 353.491 67.1357 353.589 66.3533C353.735 65.5219 354.053 64.8129 354.542 64.2261C355.08 63.5904 355.741 63.1991 356.523 63.0524C357.306 62.9057 358.161 63.1258 359.091 63.7126C361.244 64.9841 363.518 65.9132 365.914 66.5C368.311 67.0868 370.83 67.3802 373.471 67.3802C377.336 67.3802 380.148 66.7446 381.909 65.4731C383.67 64.1527 384.55 62.4656 384.55 60.4117C384.55 58.7001 383.914 57.3554 382.643 56.3774C381.42 55.3993 379.292 54.5924 376.26 53.9567L368.189 52.2696C363.542 51.2915 360.069 49.6534 357.77 47.355C355.52 45.0077 354.395 41.9269 354.395 38.1126C354.395 35.7165 354.884 33.5403 355.863 31.5842C356.841 29.6282 358.21 27.9411 359.971 26.5229C361.781 25.1047 363.909 24.0289 366.355 23.2954C368.849 22.513 371.588 22.1218 374.572 22.1218C377.507 22.1218 380.295 22.4885 382.936 23.2221C385.577 23.9556 387.949 25.0314 390.053 26.4496C390.835 26.9875 391.35 27.6477 391.593 28.4301C391.887 29.2125 391.96 29.995 391.814 30.7774C391.668 31.5109 391.325 32.1466 390.786 32.6845C390.249 33.2225 389.564 33.5403 388.733 33.6381C387.949 33.736 387.045 33.4914 386.017 32.9046C384.207 31.8777 382.373 31.1441 380.515 30.704C378.656 30.2639 376.651 30.0438 374.499 30.0438C372.249 30.0438 370.316 30.3617 368.702 30.9974C367.089 31.6331 365.841 32.5378 364.961 33.7115C364.13 34.8362 363.713 36.1809 363.713 37.7458C363.713 39.5063 364.3 40.9245 365.474 42.0003C366.647 43.0272 368.654 43.8341 371.491 44.4209L379.487 46.108C384.331 47.135 387.925 48.7487 390.273 50.9493C392.669 53.1499 393.869 56.084 393.869 59.7516C393.869 62.0989 393.379 64.2261 392.401 66.1332C391.471 68.0404 390.101 69.6787 388.292 71.0479C386.532 72.4171 384.404 73.4685 381.909 74.202C379.414 74.9355 376.603 75.3023 373.471 75.3023ZM406.935 74.9355C405.271 74.9355 403.927 74.4221 402.9 73.3951C401.921 72.3682 401.432 71.0479 401.432 69.4341C401.432 67.8692 401.921 66.5979 402.9 65.6198C403.927 64.5928 405.271 64.0794 406.935 64.0794C408.647 64.0794 409.967 64.5928 410.897 65.6198C411.874 66.5979 412.364 67.8692 412.364 69.4341C412.364 71.0479 411.874 72.3682 410.897 73.3951C409.967 74.4221 408.647 74.9355 406.935 74.9355Z" fill="#4CFFC9"/>
<mask id="mask0_430_145" style="mask-type:luminance" maskUnits="userSpaceOnUse" x="203" y="17" width="59" height="58">
<path d="M261.01 17.2507H203.69V74.5573H261.01V17.2507Z" fill="white"/>
</mask>
<g mask="url(#mask0_430_145)">
<mask id="mask1_430_145" style="mask-type:luminance" maskUnits="userSpaceOnUse" x="203" y="17" width="59" height="58">
<path d="M261.01 45.904C261.01 30.0792 248.178 17.2507 232.35 17.2507C216.522 17.2507 203.69 30.0792 203.69 45.904C203.69 61.7288 216.522 74.5573 232.35 74.5573C248.178 74.5573 261.01 61.7288 261.01 45.904Z" fill="white"/>
</mask>
<g mask="url(#mask1_430_145)">
<path d="M208.901 74.5573C206.022 74.5573 203.69 72.2248 203.69 69.3477V45.904V22.4605C203.69 19.5831 206.022 17.2507 208.901 17.2507H232.35C248.178 17.2507 261.01 30.0792 261.01 45.904C261.01 61.7288 248.178 74.5573 232.35 74.5573H208.901Z" fill="#39D9A9"/>
<path d="M214.705 74.5573C211.916 74.5573 211.012 70.8093 213.494 69.5385C232.768 59.6732 232.768 32.1348 213.494 22.2693C211.012 20.9987 211.916 17.2507 214.705 17.2507H232.35C248.178 17.2507 261.01 30.0792 261.01 45.904C261.01 61.7288 248.178 74.5573 232.35 74.5573H214.705Z" fill="#4CFFC9"/>
<path d="M237.948 45.904C234.856 45.904 232.35 43.3984 232.35 40.3076C232.35 37.2169 234.856 34.7113 237.948 34.7113C241.039 34.7113 243.546 37.2169 243.546 40.3076C243.546 43.3984 241.039 45.904 237.948 45.904Z" fill="#39D9A9"/>
</g>
</g>
</svg>
