<svg width="100" height="100" viewBox="0 0 100 100" fill="none" xmlns="http://www.w3.org/2000/svg">
<path d="M81 0C86.5229 1.28852e-07 91 4.47715 91 10V67.6113C91 70.9749 89.3091 74.1139 86.5 75.9639L55.5 96.3779C52.1627 98.5757 47.8373 98.5757 44.5 96.3779L13.5 75.9639C10.6909 74.1139 9 70.9749 9 67.6113V10C9 4.47715 13.4772 1.28852e-07 19 0H81ZM49.7998 26C44.3619 26.0001 39.9188 30.2557 39.6172 35.6182C37.5878 35.8109 36.0002 37.5198 36 39.5996V58C36 60.2091 37.7909 62 40 62H60C62.2091 62 64 60.2091 64 58V39.5996C63.9998 37.3907 62.209 35.5996 60 35.5996H59.9805C59.6696 30.2458 55.2315 26 49.7998 26ZM49.7998 28.4004C53.8088 28.4004 57.0713 31.6193 57.1943 35.5996H42.4053C42.5283 31.6193 45.7909 28.4005 49.7998 28.4004Z" fill="#3E4DED"/>
</svg>
